<?xml version="1.0" standalone="no"?>
<!DOCTYPE svg PUBLIC "-//W3C//DTD SVG 20010904//EN"
 "http://www.w3.org/TR/2001/REC-SVG-20010904/DTD/svg10.dtd">
<svg version="1.0" xmlns="http://www.w3.org/2000/svg"
 width="1200.000000pt" height="1200.000000pt" viewBox="0 0 1200.000000 1200.000000"
 preserveAspectRatio="xMidYMid meet">
<metadata>
Created by potrace 1.15, written by Peter Selinger 2001-2017
</metadata>
<g transform="translate(0.000000,1200.000000) scale(0.100000,-0.100000)"
fill="#fff" stroke="none">
<path d="M6710 11279 c-256 -27 -405 -91 -565 -240 -134 -125 -226 -254 -450
-628 -216 -359 -298 -452 -477 -541 -159 -78 -276 -100 -533 -100 -262 -1
-506 -30 -615 -74 -116 -47 -235 -142 -339 -270 -88 -109 -168 -232 -316 -490
-155 -272 -186 -316 -283 -408 -124 -116 -200 -149 -507 -218 -98 -22 -242
-58 -320 -81 -316 -91 -375 -145 -667 -620 -179 -291 -226 -347 -564 -669
-146 -139 -195 -201 -265 -335 -131 -248 -217 -676 -189 -936 20 -182 74 -311
211 -504 165 -233 305 -630 333 -946 l6 -66 -58 56 c-32 31 -111 105 -177 166
-135 125 -184 194 -221 309 -20 65 -26 102 -26 184 0 122 -14 124 -51 8 -44
-141 -22 -336 60 -536 66 -162 179 -297 299 -358 58 -30 120 -86 162 -149 18
-26 22 -46 22 -115 0 -204 36 -625 69 -815 38 -215 82 -355 163 -517 151 -300
354 -545 579 -695 122 -82 184 -113 368 -182 161 -61 205 -87 279 -170 125
-140 439 -309 689 -371 104 -26 339 -31 438 -10 141 31 313 100 404 164 l34
24 79 -33 c179 -78 431 -120 666 -110 277 10 439 66 837 287 470 261 631 309
823 244 93 -31 159 -67 357 -194 193 -124 227 -143 326 -185 95 -41 209 -72
299 -80 96 -10 258 10 360 44 123 42 365 150 495 222 61 34 142 78 180 99 176
97 414 174 753 245 475 99 651 151 868 254 196 94 315 183 415 308 105 133
168 263 273 570 103 302 143 405 247 635 193 427 226 577 216 987 -4 184 -9
232 -30 321 -103 433 -411 863 -922 1287 -82 69 -187 156 -232 194 -176 147
-299 335 -393 598 -22 61 -72 220 -110 353 -39 132 -86 274 -105 316 -53 114
-138 234 -243 344 -87 90 -249 225 -258 215 -3 -2 23 -49 57 -103 78 -123 167
-309 208 -434 41 -125 64 -236 96 -459 31 -214 61 -325 115 -431 89 -170 264
-359 501 -542 180 -139 288 -236 380 -341 280 -321 542 -882 600 -1287 18
-123 15 -403 -5 -531 -39 -252 -114 -490 -256 -815 -49 -113 -94 -213 -99
-222 -9 -15 -10 -15 -11 3 0 46 -56 182 -102 251 -27 41 -75 95 -106 121 -56
45 -198 121 -208 110 -3 -3 16 -34 42 -69 101 -136 160 -308 170 -498 13 -230
-76 -403 -287 -560 -77 -57 -227 -139 -329 -180 -47 -19 -877 -300 -886 -300
-1 0 6 20 17 44 39 89 44 172 20 392 -31 300 -73 433 -162 522 -56 57 -113 81
-218 95 -162 20 -389 -12 -690 -99 -85 -25 -222 -61 -305 -80 -176 -40 -260
-66 -336 -104 -165 -83 -234 -223 -247 -493 -3 -70 -9 -126 -13 -125 -15 6
-96 108 -128 160 -65 109 -77 158 -77 313 1 200 36 350 124 525 180 360 556
676 1113 935 207 97 272 139 433 281 216 190 446 354 622 442 201 101 326 135
483 130 59 -1 106 0 104 4 -8 12 -221 77 -313 95 -50 10 -134 16 -201 16 -107
0 -132 -4 -248 -39 -20 -6 -19 -1 18 62 115 197 117 353 8 713 -91 306 -112
441 -84 570 8 40 27 93 41 117 34 58 19 56 -38 -5 -126 -134 -171 -357 -133
-649 37 -286 14 -516 -70 -692 -44 -91 -53 -102 -208 -256 -156 -153 -257
-238 -335 -282 l-36 -21 3 157 c4 171 -7 276 -41 392 -31 106 -30 329 2 480
31 146 83 300 135 403 25 48 41 87 36 87 -12 0 -105 -104 -155 -174 -121 -170
-173 -322 -240 -701 -15 -83 -28 -151 -30 -153 -7 -8 -26 101 -40 232 -20 191
-39 290 -76 389 -50 134 -62 200 -54 307 30 430 211 834 530 1178 37 39 61 72
55 72 -18 0 -164 -84 -239 -138 -143 -102 -234 -216 -355 -448 -96 -185 -164
-257 -262 -278 -75 -17 -278 54 -359 125 -52 45 -128 164 -155 241 -31 88 -38
252 -16 373 38 206 116 377 220 481 77 77 133 105 283 143 252 64 453 146 595
244 l68 47 -25 -55 c-13 -30 -31 -65 -40 -78 -38 -55 -132 -139 -273 -244
-205 -154 -285 -251 -397 -486 -58 -122 -95 -238 -95 -302 0 -39 1 -39 34 38
88 200 187 305 532 562 308 230 434 359 532 543 66 126 169 398 195 517 l24
109 22 -66 c29 -88 80 -171 149 -241 58 -60 169 -143 179 -134 3 3 -7 21 -21
39 -55 73 -104 219 -128 386 -9 60 -12 167 -9 342 8 506 6 652 -8 725 -36 183
-122 375 -262 583 -162 243 -458 601 -669 812 -250 250 -421 355 -663 406 -90
19 -287 26 -397 13z m264 -169 c182 -18 339 -76 485 -180 66 -47 306 -269 298
-276 -6 -6 -143 17 -227 37 -94 23 -215 75 -267 115 -48 36 -41 17 17 -48 67
-75 141 -122 279 -178 244 -99 371 -181 584 -380 285 -266 419 -659 363 -1065
-91 -654 -412 -1122 -880 -1281 -225 -77 -519 -76 -767 2 -197 62 -356 161
-525 329 -283 281 -413 591 -446 1065 l-12 165 -41 -166 c-39 -161 -54 -199
-79 -199 -6 0 -36 16 -66 36 -55 35 -114 64 -132 64 -5 0 18 -30 51 -66 167
-182 365 -562 566 -1084 37 -96 133 -375 215 -620 207 -626 284 -805 450
-1046 161 -234 304 -458 347 -544 54 -109 109 -275 134 -401 16 -84 19 -143
19 -377 -1 -197 -5 -300 -15 -357 -22 -123 -22 -124 33 -74 78 72 140 150 176
223 21 41 37 64 40 55 89 -265 110 -376 104 -544 -5 -134 -28 -217 -79 -292
-17 -24 -87 -87 -161 -145 -152 -118 -312 -269 -394 -371 -77 -97 -206 -229
-276 -283 -112 -87 -255 -134 -408 -134 -120 0 -264 58 -432 172 -49 33 -88
62 -88 63 0 2 15 -1 33 -6 160 -46 418 -56 550 -20 140 37 207 80 350 223 70
70 127 133 127 138 0 6 -26 -9 -58 -34 -110 -87 -254 -123 -419 -106 -132 14
-140 20 -48 41 297 65 482 202 575 430 34 81 82 246 78 265 -2 7 -41 -34 -88
-93 -289 -360 -639 -548 -1061 -570 -152 -8 -237 10 -384 82 -126 61 -365 222
-443 298 -108 105 -191 261 -237 447 -47 185 -56 278 -65 660 -8 395 -13 435
-71 597 -121 341 -131 377 -220 788 -66 308 -148 526 -264 707 -72 112 -239
332 -243 320 -2 -6 17 -51 42 -101 60 -118 155 -343 194 -456 50 -146 78 -267
122 -526 53 -316 70 -399 135 -664 30 -121 59 -256 65 -300 6 -48 9 -231 8
-450 -2 -341 -1 -381 20 -510 50 -317 101 -455 227 -612 75 -93 148 -161 394
-364 179 -148 232 -205 275 -294 76 -162 58 -383 -51 -613 -19 -41 -33 -75
-31 -78 3 -2 28 9 58 24 79 40 164 130 204 215 41 88 53 134 69 262 l13 100
57 -115 c74 -150 222 -547 238 -635 38 -219 -43 -489 -209 -695 -265 -331
-709 -462 -1162 -344 -133 34 -370 150 -355 174 3 4 26 11 52 15 301 43 516
197 627 450 46 102 124 370 112 382 -2 2 -24 -35 -49 -82 -175 -327 -385 -504
-658 -551 -136 -23 -357 -17 -421 13 -67 31 -120 91 -177 203 -54 105 -85 138
-175 185 -105 57 -215 136 -275 200 -173 185 -358 773 -321 1020 6 39 15 105
22 148 20 137 -4 214 -128 419 -149 244 -314 628 -452 1049 -73 223 -86 307
-86 579 0 124 4 231 8 238 6 9 13 8 32 -7 39 -31 77 -35 127 -13 103 46 104
196 3 407 -54 112 -95 169 -193 268 -90 90 -232 189 -354 246 -139 64 -142 63
-62 -25 141 -158 200 -269 229 -435 14 -82 15 -148 9 -499 -7 -460 -3 -508 65
-775 72 -282 169 -520 396 -975 169 -339 192 -397 205 -520 5 -47 15 -146 23
-220 37 -337 163 -668 375 -986 208 -312 410 -525 610 -644 48 -28 71 -49 75
-66 10 -39 -11 -97 -46 -131 -74 -70 -152 -88 -368 -87 -285 2 -396 30 -722
182 l-208 97 52 7 c246 33 393 152 470 382 15 44 25 82 23 84 -2 3 -30 -19
-62 -47 -266 -239 -567 -261 -966 -74 l-100 47 80 13 c100 15 174 42 250 92
55 35 119 98 110 108 -3 2 -40 -5 -83 -17 -221 -58 -393 -24 -542 106 -131
114 -218 294 -263 539 -17 94 -22 177 -29 570 -9 489 -18 599 -65 793 -14 57
-41 142 -61 190 -76 185 -233 439 -377 610 -89 107 -128 187 -169 347 -31 121
-33 412 -5 545 27 127 81 282 142 406 93 188 165 289 474 654 34 41 92 119
129 173 48 73 67 95 73 84 21 -37 40 -140 41 -224 0 -51 4 -93 8 -93 5 0 26
21 48 48 103 124 139 222 153 425 25 346 71 468 208 556 105 67 148 75 421 76
224 1 251 3 312 23 88 29 199 105 296 201 l78 77 -8 -55 c-19 -126 -101 -297
-193 -399 -43 -48 -45 -52 -23 -52 12 0 58 15 100 34 347 151 577 561 659
1174 11 87 28 166 42 201 62 153 218 323 361 390 137 66 206 74 446 52 199
-18 384 4 535 64 31 12 -102 -120 -182 -181 -39 -30 -107 -73 -150 -97 l-78
-42 40 -3 c59 -5 224 16 307 39 92 26 217 84 299 140 202 137 447 451 583 746
161 350 239 476 372 602 130 123 265 183 453 201 110 10 116 10 225 0z m1489
-8414 c63 -26 148 -149 192 -275 15 -41 34 -124 42 -185 14 -94 15 -131 5
-246 -12 -135 -52 -361 -73 -413 -15 -37 -56 -59 -291 -161 -302 -130 -441
-166 -649 -166 -133 0 -161 8 -240 66 -167 122 -259 367 -261 689 -1 200 35
312 115 359 58 34 119 55 387 131 124 35 295 89 380 120 159 58 283 93 333 94
15 1 42 -5 60 -13z"/>
<path d="M6905 10360 c-113 -8 -162 -24 -239 -75 -187 -124 -345 -417 -430
-795 -31 -141 -56 -337 -56 -444 l0 -79 60 61 c163 164 449 290 822 361 360
69 683 67 1003 -4 124 -28 155 -31 155 -12 0 29 -53 205 -86 285 -96 234 -237
380 -454 468 -99 40 -193 90 -214 113 -24 27 -12 43 46 60 40 12 41 14 23 27
-10 8 -35 19 -55 26 -42 13 -432 19 -575 8z m400 -164 c248 -75 460 -222 616
-429 73 -97 150 -244 122 -233 -130 51 -307 91 -469 107 -410 38 -783 -87
-1197 -403 l-78 -59 6 38 c63 387 189 664 391 853 79 74 144 115 224 142 83
27 264 20 385 -16z"/>
<path d="M4884 8877 c57 -35 125 -99 158 -147 99 -144 86 -276 -56 -603 -73
-167 -59 -175 54 -28 172 222 211 307 211 463 0 100 -20 160 -74 216 -56 59
-188 113 -271 111 -36 0 -39 -2 -22 -12z"/>
<path d="M3990 8276 c-19 -6 -41 -23 -49 -37 -13 -23 -12 -30 7 -70 12 -24 62
-89 112 -144 192 -213 304 -404 376 -644 3 -8 6 -12 9 -9 8 8 -35 262 -65 381
-86 341 -254 567 -390 523z"/>
<path d="M3217 7423 c45 -155 81 -337 89 -449 12 -157 -36 -322 -121 -421
l-37 -43 29 0 c72 0 186 88 233 180 38 75 62 187 63 300 1 189 -50 314 -191
462 -46 48 -87 88 -91 88 -4 0 8 -53 26 -117z"/>
<path d="M1008 5750 c-6 -102 7 -231 32 -311 24 -81 73 -154 180 -274 115
-129 170 -213 201 -308 l27 -82 8 40 c5 22 8 90 8 150 -1 170 -13 194 -193
379 -163 168 -210 241 -231 356 -23 126 -26 132 -32 50z"/>
<path d="M6900 5060 c-101 -44 -214 -70 -345 -80 -66 -5 -140 -16 -165 -25
-296 -105 -668 -556 -761 -924 -34 -136 -24 -136 68 -4 178 257 363 466 506
574 108 82 248 162 402 232 140 63 261 138 340 210 57 53 47 57 -45 17z"/>
<path d="M6811 4653 c-201 -271 -489 -490 -711 -539 -106 -23 -109 -25 -85
-34 33 -14 199 -11 272 5 254 54 469 188 544 340 27 56 32 78 39 187 4 67 7
124 6 125 -1 1 -31 -36 -65 -84z"/>
<path d="M4205 3329 c-63 -15 -174 -74 -255 -137 -90 -69 -167 -168 -210 -269
-31 -76 -83 -253 -75 -261 2 -2 20 27 39 66 87 173 264 342 463 442 89 44 169
65 288 74 107 9 237 27 254 36 16 8 -3 12 -222 40 -170 22 -220 23 -282 9z"/>
<path d="M4874 3025 c-81 -24 -185 -103 -432 -329 -166 -152 -235 -205 -328
-251 -111 -55 -220 -79 -331 -72 -51 3 -93 3 -93 1 0 -9 105 -53 165 -69 79
-21 251 -21 339 0 172 39 350 135 529 283 184 152 294 339 244 415 -20 31 -43
37 -93 22z"/>
<path d="M10400 4116 c0 -3 28 -31 62 -63 155 -147 188 -226 189 -462 0 -86 4
-175 7 -199 l7 -44 55 84 c73 111 92 170 92 281 0 113 -27 173 -110 248 -70
62 -302 181 -302 155z"/>
</g>
</svg>
